# xmcd
#
# Track frame offsets:
#	150
#	15957
#	29242
#	47570
#	60233
#	73887
#	91481
#	106549
#	121999
#	134946
#
# Disc length: 1959 seconds
#
# Revision: 1
# Processed by: cddbd v1.4PL0 Copyright (c) Steve Scherf et al.
# Submitted via: audiograbber 1.81.02
#
DISCID=8607a50a
DTITLE=Conjunto Liberado - Pinte Mi Cuarto
DYEAR=2002
DGENRE=Latin
TTITLE0=Pinte Mi Cuarto
TTITLE1=Tres Vueltas
TTITLE2=Ay Chihuahua
TTITLE3=Pense Que Era Todo
TTITLE4=Corazon Apasionado
TTITLE5=De Ti Me Enamore
TTITLE6=Once Tumbas
TTITLE7=Dimas De Leon
TTITLE8=Lagrimas Lloro
TTITLE9=Mi Oracion
EXTD=
EXTT0=
EXTT1=
EXTT2=
EXTT3=
EXTT4=
EXTT5=
EXTT6=
EXTT7=
EXTT8=
EXTT9=
PLAYORDER=
